<?xml version="1.0" encoding="UTF-8" standalone="no"?>
<svg xmlns="http://www.w3.org/2000/svg" viewBox="0 0 96.916 96.916" id="StudyBites">
   <path
      d="M 45.744141 2.0175781 A 8.9027491 8.9027491 0 0 1 46.150391 4.6738281 A 8.9027491 8.9027491 0 0 1 38.181641 13.527344 A 8.9027491 8.9027491 0 0 1 38.486328 15.830078 A 8.9027491 8.9027491 0 0 1 29.583984 24.732422 A 8.9027491 8.9027491 0 0 1 24.361328 23.041016 A 8.9027491 8.9027491 0 0 1 16.173828 28.451172 A 8.9027491 8.9027491 0 0 1 9.8652344 25.830078 L 0.27539062 72.775391 C -0.65660938 78.713391 0.78965625 84.295094 4.3476562 88.496094 C 7.8416563 92.621094 12.964438 94.894531 18.773438 94.894531 L 19.699219 94.890625 C 19.717219 94.890625 19.735859 94.892578 19.755859 94.892578 C 22.849859 94.895578 82.019719 94.898437 82.636719 94.898438 C 84.875719 94.898438 86.783687 93.295969 87.179688 91.042969 L 96.892578 27.550781 C 96.927578 27.332781 96.923766 27.107625 96.884766 26.890625 L 95.615234 19.958984 C 95.441234 19.007984 94.613438 18.318359 93.648438 18.318359 L 93.638672 18.318359 C 92.668672 18.322359 91.843734 19.021562 91.677734 19.976562 L 80.271484 85.695312 L 22.136719 85.697266 C 20.743719 85.697266 19.454906 85.121172 18.503906 84.076172 C 17.413906 82.875172 16.805172 81.085781 16.951172 79.550781 C 17.377172 75.851781 20.052641 73.164062 23.306641 73.164062 L 71.822266 73.164062 C 72.797266 73.164062 73.630969 72.461047 73.792969 71.498047 L 85.150391 4.3515625 C 85.248391 3.7705625 85.086078 3.1765625 84.705078 2.7265625 C 84.326078 2.2765625 83.767687 2.0175781 83.179688 2.0175781 L 45.744141 2.0175781 z "
      id="path" />
</svg>
